<svg enable-background="new 0 0 923.9 444.2" height="219.195974" viewBox="0 0 923.9 444.2" width="456.212759" xmlns="http://www.w3.org/2000/svg"><g fill="#00d586"><path d="m838.2 86.2c-.1-.7-.4-1.3-.9-1.6s-1.3-.6-1.9-.6-1.1.1-1.6.3-.7.4-1 .7-.3.6-.3 1c0 .3.1.6.2.8.2.2.4.4.6.6.3.2.6.3.9.4s.7.2 1.1.3l1.6.4c.8.2 1.5.4 1.8.7.6.3 1.2.6 1.6 1.1.5.4.8.9 1.1 1.5s.4 1.2.4 1.7c0 1.1-.3 1.7-.8 2.5s-1.3 1.4-2.1 1.6c-1.1.5-2 .7-3.4.7-1.5 0-2.4-.2-3.5-.7-1.1-.4-1.6-1.1-2.2-1.7-.6-.9-.9-1.7-.9-2.9h3.4c0 .6.2 1.1.5 1.5s.7.7 1.2.9 1.1.3 1.6.3 1.2-.1 1.6-.3c.5-.2.8-.4 1.1-.8.3-.3.4-.7.4-1.1s-.1-.7-.4-1c-.2-.3-.6-.5-1-.7s-1-.4-1.6-.5l-1.6-.5c-1.5-.4-2.4-.9-3.3-1.6-.9-.8-1.3-1.6-1.3-2.8 0-1.1.3-1.7.9-2.5s1.4-1.4 2.1-1.6c1-.5 1.9-.7 3.2-.7s2.2.2 3.2.7 1.6 1.1 2 1.6c.5.7.8 1.6.9 2.5z"/><path d="m844.2 81.4h4.4l4.6 11.1h.2l4.6-11.1h4.4v16.3h-3.4v-10.6h-.2l-4.3 10.7h-2.2l-4.3-10.7h-.2v10.7h-3.4c-.2-.1-.2-16.4-.2-16.4z"/><path d="m775.8 337.4c-7.5 4.8-15.7 7-25 7s-17.6-2.2-25.1-7c-7.6-4.8-14.3-12.5-20.6-23.8s-11.1-27.4-14.5-48.8c-3.5-21.2-5.1-47.1-5.1-77.8s1.6-56.4 5.1-77.8 8.2-37.4 14.5-48.8c6.2-11.1 13.2-19.2 20.6-23.8 7.6-4.8 15.8-7 25.1-7s17.5 2.2 25 7 14.3 12.5 20.6 23.8 11.1 27.4 14.5 48.8c3.5 21.2 5.1 47.1 5.1 77.8s-1.6 56.4-5.1 77.8c-3.5 21.2-8.2 37.4-14.5 48.8-6.4 11.2-13.2 19-20.6 23.8zm-31.5-37.7c1.6 3.7 3.8 5.3 6.4 5.3s4.8-1.7 6.3-5.3c1.6-3.7 3.1-14.5 4.7-33.1 1.6-18.5 2.2-44.9 2.2-79.5s-.8-61.3-2.2-79.5c-1.5-18.2-3-29.4-4.7-33.1-1.6-3.7-3.7-5.3-6.3-5.3s-4.8 1.7-6.4 5.3c-1.6 3.7-3.2 14.5-4.7 33.1-1.6 18.3-2 44.9-2 79.5s.8 61.3 2 79.5c1.5 18.2 3.1 29.4 4.7 33.1z"/><path d="m121.8 256.5v-146.2h24.5c10.7 0 19.2 3.5 25.8 10.6 6.5 7.1 9.8 16.6 9.8 28.5 0 29.4-25 32.8-27.6 36-1 1.2-.9 2.6.1 3.8 2.2 2.7 26.6 3.8 26.6 26v36.7c0 2.6.4 4.8 1.3 6.5.8 1.6 1.6 2.6 2.1 3.1l1.2.6v2.1h-18.9c-3.4 0-5.9-1.1-7.7-3-1.6-1.9-2.4-5.4-2.4-10.5v-37.8c0-7.5-3.3-11.1-10-11.1v55zm24.6-83.9h1.2c6.7 0 10-7.1 10-21s-3.3-21-10-21h-1.2z"/><path d="m258.9 220.8h30.5l.3 17.5c0 18.6 2.9 27.9 8.7 27.8 2.5 0 4.6-1.4 5.6-4 1.3-2.6 1.7-7.8 1.7-15.1 0-7.6-1.6-14.8-4.8-22.2-3.3-7.4-7.3-14.3-11.7-20.5-4.7-6.3-9.2-12.8-13.9-19.5s-8.4-14.3-11.7-23.4c-3.3-8.7-4.8-18-4.8-27.8 0-17.1 3.8-30.2 11.1-39.4 7.6-9.1 17-13.8 28.4-13.8s20.7 4.5 28.4 13.1 11.2 20.6 11.2 35.5v23.7h-30.7v-17.5c0-18.6-2.9-27.9-8.8-27.9-2.5 0-4.6 1.5-5.5 4.1-1.3 2.6-1.6 7.9-1.6 15.3 0 8.9 2.4 18.1 7.5 27.4 4.8 9.3 10.4 17.5 16.3 24.4 5.8 7.1 11.1 16 16.2 27 4.8 11.1 7.4 22.3 7.4 34 0 17.1-3.8 30.2-11.1 39.3-7.6 9.1-17.1 13.7-28.6 13.7s-20.7-4.5-28.3-13.1-11.1-20.6-11.1-35.4z"/><path d="m579.5 304.7v-235.2h37c8.4 0 16 1.7 22.5 5.5s12.4 9.9 17.7 18.5 9.6 20.7 12.4 36.5c2.9 15.6 4.5 34.6 4.5 57.1s-1.6 41.5-4.5 57.2-7.1 27.8-12.4 36.5c-5.3 8.5-11.2 14.6-17.7 18.4s-14.1 5.5-22.5 5.5zm37.1-32.1h1.6c1.9 0 3.6-.5 4.8-1.4 1.4-1 2.6-2.9 4.2-6.1s2.5-7.9 3.4-13.9c.8-5.9 1.6-14.3 1.9-25.2.6-11 .9-23.9.9-39.2s-.3-28.2-.9-39.2-1.3-19.3-1.9-25.2c-.8-5.9-1.8-10.6-3.4-13.9s-2.8-5.3-4.2-6.2c-1.4-1-2.8-1.4-4.8-1.4h-1.6z"/><path d="m230.1 118.9h22.4v-20.9h-42.9l-14.3 14.4v149.3l14.3 14.3h42.9v-19.6h-22.5c-5.3 0-9.7-4.5-9.7-9.7v-48.4h24.5v-25.3h-24.5v-44.5c0-5.1 4.4-9.6 9.8-9.6z"/><path d="m449.7 123.3h21v-25.3h-42.9l-14.4 14.4v149.3l14.3 14.3h42.9v-25h-21c-5.3 0-9.7-4.5-9.7-9.7v-42.9h23.3v-25.3h-23.3v-40c.1-5.3 4.5-9.8 9.8-9.8z"/><path d="m530.4 81.1 7.1 119.6-4 .5-19.6-114.4h-21.5l-12.8 11.2v178.1l11 9.4h23.3l-6.5-115.7 2.1-.1 20.9 123.3h34.1v-211.9z"/><path d="m381.9 218.9c0 7.6-.3 13.3-.8 17.1-.5 3.9-1.1 6.2-1.6 7.2-.7 1-1.6 1.5-2.8 1.5-1.4 0-2.2-1-3.1-2.6s-1.6-7.2-2.1-16c-.5-5.9-.8-13.7-1-23.1-.1-4.8-.1-10-.1-15.6s0-11.1.1-16.1c.2-9.2.5-16.8 1-22.6.8-8.9 1.6-14.3 2.1-16 .9-1.6 1.7-2.6 3.1-2.6s2.1.5 2.8 1.5 1.3 3.3 1.6 7.2c.5 3.9.8 9.5.8 17.1l.1 17.5h23.4v-20.1c0-14.1-2.5-24.5-7.9-31.7-5.1-7.2-11.7-10.8-20-10.8-4.8 0-9 1.2-12.8 3.4s-7.3 6.1-10.4 11.4c-3.1 5.4-5.4 13.4-7.3 23.8-1.3 7.5-1.9 15.9-2.2 25.6-.2 4-.2 7.9-.2 12.2 0 4.4.1 7.9.2 11.6.4 9.9 1.2 18.5 2.3 26.1 1.6 10.4 4.2 18.1 7.3 23.8 3.1 5.4 6.5 9.3 10.3 11.4 3.8 2.2 7.9 3.4 12.9 3.4 7.9 0 14.6-3.6 20-10.8s7.9-17.5 7.9-31.7v-22.9h-23.6z"/><path d="m93.2 213.8c0 6.3-.2 11.1-.7 14.3-.4 3.2-.9 5.1-1.5 5.9s-1.4 1.2-2.3 1.2c-1.2 0-1.8-.8-2.6-2.1-.7-1.6-1.4-5.9-1.7-13.5-.4-4.8-.7-11.3-.8-19.3-.1-4.1-.1-8.2-.1-13.2s0-9.4.1-13.6c.1-7.8.4-14.2.8-18.9.6-7.6 1.3-11.9 1.7-13.5.6-1.6 1.6-2.1 2.6-2.1 1.2 0 1.7.4 2.3 1.3s1.1 2.7 1.5 5.9.7 7.9.7 14.3l.1 12.7h19.6v-14.3c0-11.7-2.1-20.6-6.5-26.7-4.5-6-9.9-8.9-16.8-8.9-4.1 0-7.7 1-10.8 2.8-3.2 1.8-6 5-8.6 9.7s-4.8 11.1-6 19.9c-1.1 6.2-1.6 13.4-1.8 21.4-.1 3.3-.2 6.7-.2 10.3s.1 6.7.2 9.9c.3 8.1 1 15.5 1.8 21.8 1.6 8.6 3.5 15.2 6 19.9 2.6 4.7 5.4 7.9 8.5 9.7s6.7 2.8 10.9 2.8c6.8 0 12.3-3 16.8-8.9s6.5-14.7 6.5-26.7v-17.4h-19.8z"/></g><path d="m271 384.6h-2.9v5.7h-3v-15.3h5.9c3.2 0 4.9 2.1 4.9 4.8.3 2.6-1.7 4.8-4.9 4.8zm-.2-7h-2.8v4.3h2.8c1.5 0 2.1-.9 2.1-2 .3-1.3-.7-2.3-2.1-2.3z"/><path d="m287.8 390.3-3-6.1h-2.1v6.1h-3v-15.3h6c3.1 0 4.8 2 4.8 4.8 0 2.1-1.4 3.5-2.8 4.1l3.5 6.6zm-2.2-12.7h-2.8v4.1h2.8c1.4 0 2.1-.9 2.1-1.9 0-1.2-.9-2.2-2.1-2.2z"/><path d="m294.9 390.3v-15.3h10.1v2.6h-7.2v3.6h6v2.6h-6v3.8h7.2v2.6z"/><path d="m313.3 390.4c-2.2 0-4.2-.5-5.5-1.9l1.8-1.8c1.1 1.1 2.2 1.4 3.8 1.4s2.7-.7 2.7-1.8c0-.6-.2-1.1-.5-1.4s-.7-.5-1.5-.6l-1.7-.3c-1.4-.2-2.2-.7-3-1.4-.8-.8-1.2-1.6-1.2-3 0-2.7 1.9-4.8 5.3-4.8 2 0 3.7.6 4.8 1.7l-1.8 1.8c-1.1-1-2-1.2-3.1-1.2-1.6 0-2.3 1-2.3 1.8 0 .4.1.9.5 1.2.3.3.9.6 1.6.7l1.7.3c1.5.2 2.2.6 2.9 1.3.9.9 1.3 1.8 1.3 3.3-.2 3.1-2.6 4.7-5.8 4.7z"/><path d="m322.9 390.3v-15.3h10.2v2.6h-7.2v3.6h6v2.6h-6v3.8h7.2v2.6z"/><path d="m346.1 390.3-6.1-9.4v9.4h-3v-15.3h2.6l6.1 9.4v-9.4h3v15.3z"/><path d="m359.2 377.6v12.7h-3v-12.7h-4.1v-2.6h11.1v2.6z"/><path d="m366.8 390.3v-15.3h10.2v2.6h-7.2v3.6h6v2.6h-6v3.8h7.2v2.6z"/><path d="m390.6 388.8c-1.1 1.1-2.4 1.6-4.1 1.6h-5.5v-15.3h5.5c1.6 0 3 .5 4.1 1.6 1.6 1.6 1.6 3.9 1.6 6.1-.1 2.1.1 4.3-1.6 6zm-2.2-10.1c-.6-.7-1.3-1-2.2-1h-2.2v10h2.2c1.1 0 1.6-.4 2.2-1 .6-.8.7-1.7.7-4.2 0-2.1-.1-3.3-.7-3.8z"/><path d="m408.8 390.3h-6.4v-15.3h6.2c3 0 4.8 1.6 4.8 4.4 0 1.6-1.2 2.8-1.8 3.2 1 .5 2 1.5 2 3.5-.2 2.7-2.1 4.2-4.8 4.2zm-.5-12.7h-2.9v3.6h2.9c1.4 0 1.9-.8 1.9-1.6 0-.9-.6-2-1.9-2zm.2 6.2h-3.1v3.8h3.1c1.5 0 1.9-.9 1.9-1.8 0-1-.6-2-1.9-2z"/><path d="m423.4 384v6.3h-3v-6.3l-4.7-9h3.3l2.8 6.2 2.8-6.2h3.3z"/><path d="m458.9 408.9c0 2.3.6 4.3 2.4 4.3.9 0 1.6-.5 1.7-1.1v-1.6l-1.4-.1v-1.3h4.7v1.3l-1 .1v3.8h-1.3c-.1-.3-.2-.6-.6-.6-.5 0-1.3.8-2.7.8-2.9 0-4.8-1.6-4.8-5.3 0-3.8 2.1-5.4 5-5.4 1.5 0 1.8.6 2.3.6.2 0 .3-.2.5-.5h1.1l.1 3.5h-1.2c-.5-1.6-1.3-2.4-2.6-2.4-1.4-.4-2.3 1.2-2.2 3.9z"/><path d="m470.7 406.5c1.8 0 3.2 1.1 3.2 3.3v.9h-4.5c0 1.5.4 2.4 1.6 2.4 1 0 1.5-.6 1.6-1.5l1.2.4c-.5 1.5-1.6 2.1-3.2 2.1-2.4 0-3.8-1.6-3.8-3.8.2-2.4 1.9-3.8 3.9-3.8zm1 3.1v-.3c0-1.5-.2-1.8-1.1-1.8-1 0-1.3 1.1-1.3 2.1z"/><path d="m477.9 406.6.1 1.6h.1c.4-.8 1.1-1.6 2.5-1.6s2.2.8 2.2 2.4v4.2l1 .1v1.1h-4v-1.1l.8-.1v-3.8c0-.9-.1-1.5-1-1.5s-1.6.5-1.6 1.6v3.5l.8.1v1.1h-4.1v-1.1l1-.1v-5.1l-1-.1v-1.1z"/><path d="m488.4 406.5c1.8 0 3.2 1.1 3.2 3.3v.9h-4.6c0 1.5.4 2.4 1.6 2.4 1 0 1.5-.6 1.6-1.5l1.2.4c-.5 1.5-1.6 2.1-3.2 2.1-2.4 0-3.8-1.6-3.8-3.8.2-2.4 1.7-3.8 4-3.8zm.8 3.1v-.3c0-1.5-.2-1.8-1.1-1.8-1 0-1.3 1.1-1.3 2.1z"/><path d="m498.7 408.2h3.7v-3.3l-1.1-.1v-1.3h4.5v1.3l-1.1.1v7.9l1.1.1v1.3h-4.5v-1.2l1.1-.1v-3.4h-3.7v3.4l1.1.1v1.3h-4.6v-1.3l1.1-.1v-7.9l-1.1-.1v-1.3h4.6v1.3l-1.1.1z"/><path d="m511.1 410.3v-1.1c0-1.3-.3-1.7-1.5-1.7-.5 0-.9.1-.9.5v.2h.6c0 .2.1.4.1.6 0 .7-.4 1.1-1.3 1.1s-1.3-.6-1.3-1.3c0-1.3 1.2-1.9 3-1.9s3.1.7 3.1 2.8v3.1c0 .6 0 .9.4.9.1 0 .3 0 .5-.1l.2.8c-.3.2-1 .5-1.6.5-1.1 0-1.5-.4-1.6-1.2-.3.5-.9 1.2-2 1.2-1.3 0-2.1-.6-2.1-1.8 0-1.6 1.3-2 3.1-2zm0 1.7v-1h-.6c-1 0-1.3.4-1.3 1.3 0 .8.3 1.1.9 1.1.5-.2 1-.5 1-1.4z"/><path d="m519.1 410.3v-1.1c0-1.3-.3-1.7-1.5-1.7-.5 0-.9.1-.9.5v.2h.6c0 .2.1.4.1.6 0 .7-.4 1.1-1.3 1.1s-1.3-.6-1.3-1.3c0-1.3 1.2-1.9 3-1.9s3.1.7 3.1 2.8v3.1c0 .6 0 .9.4.9.1 0 .3 0 .5-.1l.2.8c-.3.2-1 .5-1.6.5-1.1 0-1.5-.4-1.6-1.2-.3.5-.9 1.2-2 1.2-1.3 0-2.1-.6-2.1-1.8 0-1.6 1.3-2 3.1-2zm0 1.7v-1h-.6c-1 0-1.3.4-1.3 1.3 0 .8.3 1.1.9 1.1.5-.2 1-.5 1-1.4z"/><path d="m523.2 411.7h1c.3 1 1.1 1.6 2.1 1.6.9 0 1.4-.3 1.4-.9 0-.7-.7-.9-1.6-1-1.4-.2-2.8-.5-2.8-2.4 0-1.6 1.3-2.5 2.7-2.5.7 0 1.2.2 1.5.4.1.1.2.1.3.1.2 0 .2-.1.3-.4h.9v2.2h-1c-.4-1.1-1-1.6-1.7-1.6-.6 0-1.3.2-1.3.9s.7.8 1.6 1c1.4.3 2.8.6 2.8 2.5 0 1.6-1.2 2.6-2.7 2.6-1 0-1.6-.3-1.7-.5-.1 0-.2-.1-.3-.1-.2 0-.2.1-.3.5h-.9z"/><path d="m540.4 403.7.2 2.7h-.5c-.4-1.7-1-2.1-2.4-2.1h-1.7v4.5h1c1.4 0 1.6-.5 1.7-1.7h.4v4.5h-.4c-.3-1.6-.5-1.9-1.9-1.9h-.8v4.5l2 .1v.5h-4.6v-.5l1.4-.1v-9.3l-1.4-.1v-.5z"/><path d="m544.7 406.6c2 0 3.2 1.6 3.2 3.9s-1.4 4-3.3 4-3.3-1.6-3.3-3.9c0-2.4 1.6-4 3.4-4zm0 .7c-1.6 0-1.9 1.6-1.9 3.1s.4 3.3 2 3.3 1.9-1.6 1.9-3.1-.4-3.3-2-3.3z"/><path d="m551.1 411.9c0 1.2.3 1.6 1.6 1.6s2.1-.8 2.1-2v-4.1l-1.2-.1v-.6l2.1-.1v6.9l1.1.1v.6h-1.7l-.1-1.4c-.5.8-1.5 1.5-2.5 1.5-1.6 0-2.2-.9-2.2-2.4v-4.6l-1.1-.1v-.6l2-.1z"/><path d="m559.9 406.7.1 1.5c.5-.8 1.4-1.6 2.6-1.6 1.6 0 2.2.9 2.2 2.5v4.5l1.1.1v.5h-3.2v-.5l1.2-.1v-4.4c0-1.3-.3-1.6-1.6-1.6s-2.1.9-2.1 1.9v4.3l1.2.1v.5h-3.4v-.5l1.1-.1v-6.2l-1.1-.2v-.5z"/><path d="m572.3 407.6v-4l-1.4-.1v-.5l2.3-.1v10.7l1.2.1v.5h-2l-.1-1.3c-.4.7-1.2 1.5-2.4 1.5-1.8 0-2.8-1.6-2.8-3.8 0-2.5 1.4-4.1 3.2-4.1.7.1 1.4.3 2 1.1zm0 3.9v-2.3c0-1.5-1.1-1.8-1.8-1.8-1.6 0-2 1.4-2 3.1 0 1.6.3 3.1 1.8 3.1 1-.1 2-1 2-2.1z"/><path d="m579.7 410.3v-1.1c0-1.5-.4-2-1.6-2-.5 0-1.5.1-1.5.7v.2h.5c0 .2.1.4.1.6 0 .5-.4.8-.8.8-.5 0-.9-.3-.9-.9 0-1.1 1.1-1.7 2.5-1.7 1.7 0 2.4.9 2.4 2.8v3.5c0 .8.1.9.6.9.2 0 .4 0 .5-.1l.1.5c-.3.1-.6.2-.9.2-.8 0-1.3-.3-1.4-1.2-.6.8-1.5 1.2-2.1 1.2-1.3 0-2-.6-2-1.8 0-1.6 1.5-2.1 3.2-2.1zm0 1.7v-1.3h-1.1c-1.6 0-1.9.7-1.9 1.6s.4 1.4 1.4 1.4c.7 0 1.6-.6 1.6-1.7z"/><path d="m583.3 407.4h-1.2v-.7h1.2v-1.8l1-.3h.2v2.2h1.6v.7h-1.6v4.9c0 .9.3 1.3.9 1.3s.9-.2 1.2-1.2l.6.2c-.3 1.3-1 1.6-1.7 1.6-1.3 0-1.6-.6-1.6-1.6v-5.3z"/><path d="m590 406.7v6.9l1.3.1v.5h-3.4v-.5l1.2-.1v-6.2l-1.3-.1v-.5zm-.8-3.4c.5 0 .8.2.8.9 0 .5-.3.8-.8.8-.6 0-.8-.3-.8-.8s.3-.9.8-.9z"/><path d="m595.5 406.6c2 0 3.2 1.6 3.2 3.9s-1.4 4-3.3 4-3.3-1.6-3.3-3.9c0-2.4 1.5-4 3.4-4zm-.1.7c-1.6 0-1.9 1.6-1.9 3.1s.4 3.3 2 3.3 1.9-1.6 1.9-3.1-.3-3.3-2-3.3z"/><path d="m602 406.7.1 1.5c.5-.8 1.4-1.6 2.6-1.6 1.6 0 2.2.9 2.2 2.5v4.5l1.1.1v.5h-3.2v-.5l1.2-.1v-4.4c0-1.3-.3-1.6-1.6-1.6s-2.1.9-2.1 1.9v4.3l1.2.1v.5h-3.2v-.5l1.1-.1v-6.2l-1.1-.1v-.5z"/><path d="m493.5 355.5-12.3 21.4h-25l-4.7 7.9 25 .1-5.1 9h9l22.2-38.4z"/><path d="m511.8 355.5-12.3 21.4h-6.7l-4.4 7.9 6.7.1-5.4 9h9.1l22.2-38.4z"/><path d="m525.4 355.5-22.2 38.4h9.1l22.1-38.4z"/><path d="m551.8 355.5-16 27.7v-25.5l-7.8 13.1v6.1h-3.6l-4.4 7.9 8 .1v9h10.8l22.1-38.4z"/><path d="m583.5 363.6h24.9l4.8-8h-33.3c-1.6 0-3 .9-3.9 2.1l-8.9 15.4c-1.4 2.2.3 5 2.9 5h11.9l-4.1 6.7c-.4.7-1.2 1.1-1.7 1.1h-13.8v-28.2l-7.8 13.2v5.9.1h-3.4l-4.7 7.9h8v9h5.8 19.1c1.6 0 3-.9 3.9-2.1l9.5-16.3c1.4-2.2-.3-5-2.9-5h-11.4l3.4-5.7c.4-.7 1-1.1 1.7-1.1z"/></svg>